<svg width="44" height="44" viewBox="0 0 44 44" fill="none" xmlns="http://www.w3.org/2000/svg">
<rect x="0.5" y="0.5" width="43" height="43" rx="21.5" fill="#232323" fill-opacity="0.2"/>
<rect x="0.5" y="0.5" width="43" height="43" rx="21.5" stroke="#009951"/>
<path d="M21.5 27.5C21.5 27.6326 21.4473 27.7598 21.3536 27.8536C21.2598 27.9473 21.1326 28 21 28H17C16.8674 28 16.7402 27.9473 16.6464 27.8536C16.5527 27.7598 16.5 27.6326 16.5 27.5V16.5C16.5 16.3674 16.5527 16.2402 16.6464 16.1464C16.7402 16.0527 16.8674 16 17 16H21C21.1326 16 21.2598 16.0527 21.3536 16.1464C21.4473 16.2402 21.5 16.3674 21.5 16.5C21.5 16.6326 21.4473 16.7598 21.3536 16.8536C21.2598 16.9473 21.1326 17 21 17H17.5V27H21C21.1326 27 21.2598 27.0527 21.3536 27.1464C21.4473 27.2402 21.5 27.3674 21.5 27.5ZM28.3538 21.6462L25.8538 19.1462C25.7599 19.0524 25.6327 18.9997 25.5 18.9997C25.3673 18.9997 25.2401 19.0524 25.1462 19.1462C25.0524 19.2401 24.9997 19.3673 24.9997 19.5C24.9997 19.6327 25.0524 19.7599 25.1462 19.8538L26.7931 21.5H21C20.8674 21.5 20.7402 21.5527 20.6464 21.6464C20.5527 21.7402 20.5 21.8674 20.5 22C20.5 22.1326 20.5527 22.2598 20.6464 22.3536C20.7402 22.4473 20.8674 22.5 21 22.5H26.7931L25.1462 24.1462C25.0524 24.2401 24.9997 24.3673 24.9997 24.5C24.9997 24.6327 25.0524 24.7599 25.1462 24.8538C25.2401 24.9476 25.3673 25.0003 25.5 25.0003C25.6327 25.0003 25.7599 24.9476 25.8538 24.8538L28.3538 22.3538C28.4002 22.3073 28.4371 22.2522 28.4623 22.1915C28.4874 22.1308 28.5004 22.0657 28.5004 22C28.5004 21.9343 28.4874 21.8692 28.4623 21.8085C28.4371 21.7478 28.4002 21.6927 28.3538 21.6462Z" fill="#F2F2F7"/>
</svg>
