<svg width="42" height="39" viewBox="0 0 42 39" fill="none" xmlns="http://www.w3.org/2000/svg">
<path id="logo" fill-rule="evenodd" clip-rule="evenodd" d="M13.1342 11.7511L19.392 0H22.6165L29.9551 13.7806L31.7504 17.1517L38.3236 29.4951L42.0085 36.4364V36.9089L39.0979 38.4684L21.0043 25.0946L2.91067 38.4684L0 36.9089V36.4154L3.68496 29.4951L9.17713 19.1818L12.199 21.4152L7.37782 30.4685L17.8262 22.7456L13.28 19.3853L10.2582 17.1517L3.68496 12.2932V24.7463L0 31.6545V8.5823L2.91067 7.02283L12.0534 13.7806L15.0752 16.0142L21.0043 20.3966L25.1151 17.3581L26.9109 20.7288L24.1823 22.7456L34.6307 30.4685L28.7286 19.3853L26.9333 16.0142L21.0043 4.88043L16.1557 13.9853L13.1342 11.7511ZM42.0085 8.5823V31.6664L38.3236 24.7343V12.2932L33.5684 15.8079L31.7639 12.4437L39.0979 7.02283L42.0085 8.5823Z" fill="#F2F2F7"/>
</svg>
