<svg width="48" height="48" viewBox="0 0 48 48" fill="none" xmlns="http://www.w3.org/2000/svg">
<path fill-rule="evenodd" clip-rule="evenodd" d="M15.4726 26.5237L11.6963 33.35L20.252 27.2623L16.5293 24.6134L12.9657 22.0778L7.34132 18.0758V27.7342L2.99561 35.6526V13.863L6.42818 12.0926L15.0828 18.2507L15.0851 18.2465L18.6488 20.7821L18.6464 20.7863L23.9999 24.5955L27.576 22.051L29.6942 25.8773L27.7478 27.2623L36.3034 33.35L31.4704 24.6134L29.3533 20.7863L27.5721 17.5665L23.9999 11.109L19.7073 18.8686L16.1437 16.3329L22.0986 5.56836H25.9012L30.9359 14.6696L32.917 18.2507L35.0341 22.0778L40.6584 32.2437L45.0041 40.1113V40.6616L41.5716 42.432L23.9999 29.929L6.42818 42.432L2.99561 40.6616V40.1689L7.34132 32.2449L7.72667 31.5483L11.9101 23.9859L15.4726 26.5237ZM45.0041 35.6173V13.863L41.5716 12.0926L34.6932 16.9868L36.8127 20.8122L40.6584 18.0758V27.7497L45.0041 35.6173Z" fill="#1C9B56"/>
</svg>
